<svg width="20" height="20" viewBox="0 0 20 20" fill="none" xmlns="http://www.w3.org/2000/svg">
<path opacity="0.2" d="M6.25 11.25V14.375C6.25 14.7065 6.1183 15.0245 5.88388 15.2589C5.64946 15.4933 5.33152 15.625 5 15.625H3.75C3.41848 15.625 3.10054 15.4933 2.86612 15.2589C2.6317 15.0245 2.5 14.7065 2.5 14.375V10H5C5.33152 10 5.64946 10.1317 5.88388 10.3661C6.1183 10.6005 6.25 10.9185 6.25 11.25ZM15 10C14.6685 10 14.3505 10.1317 14.1161 10.3661C13.8817 10.6005 13.75 10.9185 13.75 11.25V14.375C13.75 14.7065 13.8817 15.0245 14.1161 15.2589C14.3505 15.4933 14.6685 15.625 15 15.625H17.5V10H15Z" fill="#0C0C0C"/>
<path d="M15.7727 4.27033C14.6376 3.12861 13.1891 2.34953 11.6108 2.03184C10.0325 1.71414 8.39541 1.87213 6.90698 2.48577C5.41856 3.09941 4.1458 4.14109 3.24998 5.47881C2.35417 6.81653 1.87563 8.39006 1.875 10V14.375C1.875 14.8723 2.07254 15.3492 2.42417 15.7008C2.77581 16.0525 3.25272 16.25 3.75 16.25H5C5.49728 16.25 5.97419 16.0525 6.32583 15.7008C6.67746 15.3492 6.875 14.8723 6.875 14.375V11.25C6.875 10.7527 6.67746 10.2758 6.32583 9.9242C5.97419 9.57256 5.49728 9.37502 5 9.37502H3.15313C3.27366 8.07184 3.76315 6.83002 4.56424 5.7951C5.36532 4.76018 6.44481 3.97505 7.67617 3.53171C8.90753 3.08838 10.2398 3.00522 11.5167 3.29198C12.7936 3.57874 13.9624 4.22354 14.8859 5.1508C16.0148 6.28541 16.7091 7.78054 16.8477 9.37502H15C14.5027 9.37502 14.0258 9.57256 13.6742 9.9242C13.3225 10.2758 13.125 10.7527 13.125 11.25V14.375C13.125 14.8723 13.3225 15.3492 13.6742 15.7008C14.0258 16.0525 14.5027 16.25 15 16.25H16.875C16.875 16.7473 16.6775 17.2242 16.3258 17.5758C15.9742 17.9275 15.4973 18.125 15 18.125H10.625C10.4592 18.125 10.3003 18.1909 10.1831 18.3081C10.0658 18.4253 10 18.5843 10 18.75C10 18.9158 10.0658 19.0748 10.1831 19.192C10.3003 19.3092 10.4592 19.375 10.625 19.375H15C15.8288 19.375 16.6237 19.0458 17.2097 18.4597C17.7958 17.8737 18.125 17.0788 18.125 16.25V10C18.1291 8.93719 17.9234 7.884 17.5197 6.90079C17.1161 5.91759 16.5224 5.0237 15.7727 4.27033ZM5 10.625C5.16576 10.625 5.32473 10.6909 5.44194 10.8081C5.55915 10.9253 5.625 11.0843 5.625 11.25V14.375C5.625 14.5408 5.55915 14.6998 5.44194 14.817C5.32473 14.9342 5.16576 15 5 15H3.75C3.58424 15 3.42527 14.9342 3.30806 14.817C3.19085 14.6998 3.125 14.5408 3.125 14.375V10.625H5ZM15 15C14.8342 15 14.6753 14.9342 14.5581 14.817C14.4408 14.6998 14.375 14.5408 14.375 14.375V11.25C14.375 11.0843 14.4408 10.9253 14.5581 10.8081C14.6753 10.6909 14.8342 10.625 15 10.625H16.875V15H15Z" fill="#0C0C0C"/>
</svg>
