<svg width="20" height="20" viewBox="0 0 20 20" fill="none" xmlns="http://www.w3.org/2000/svg">
<path opacity="0.2" d="M18.5673 6.66094L8.53604 16.6922C8.47799 16.7503 8.40906 16.7964 8.33319 16.8279C8.25731 16.8593 8.17599 16.8755 8.09385 16.8755C8.01172 16.8755 7.93039 16.8593 7.85451 16.8279C7.77864 16.7964 7.70971 16.7503 7.65166 16.6922L2.05791 11.0672C1.94079 10.95 1.875 10.7911 1.875 10.6254C1.875 10.4597 1.94079 10.3008 2.05791 10.1836L3.93291 8.3086C3.99096 8.25049 4.05989 8.20439 4.13576 8.17294C4.21164 8.14148 4.29297 8.12529 4.3751 8.12529C4.45724 8.12529 4.53856 8.14148 4.61444 8.17294C4.69031 8.20439 4.75924 8.25049 4.81729 8.3086L8.1251 11.518L15.8079 3.93282C15.866 3.87471 15.9349 3.82861 16.0108 3.79715C16.0866 3.7657 16.168 3.74951 16.2501 3.74951C16.3322 3.74951 16.4136 3.7657 16.4894 3.79715C16.5653 3.82861 16.6342 3.87471 16.6923 3.93282L18.5673 5.77657C18.6254 5.83461 18.6715 5.90354 18.703 5.97942C18.7344 6.05529 18.7506 6.13662 18.7506 6.21875C18.7506 6.30089 18.7344 6.38222 18.703 6.45809C18.6715 6.53396 18.6254 6.6029 18.5673 6.66094Z" fill="#003914"/>
<path d="M19.0061 5.33126L17.1311 3.49063C16.8968 3.25711 16.5794 3.12598 16.2486 3.12598C15.9178 3.12598 15.6005 3.25711 15.3662 3.49063L8.12481 10.643L5.2584 7.86173C5.02362 7.62896 4.70618 7.49868 4.37557 7.49941C4.04495 7.50014 3.72809 7.63182 3.49434 7.86563L1.61934 9.74063C1.38534 9.975 1.25391 10.2926 1.25391 10.6238C1.25391 10.955 1.38534 11.2727 1.61934 11.507L7.21465 17.132C7.33073 17.2481 7.46854 17.3402 7.62022 17.4031C7.77189 17.4659 7.93446 17.4983 8.09864 17.4983C8.26282 17.4983 8.42538 17.4659 8.57706 17.4031C8.72874 17.3402 8.86655 17.2481 8.98262 17.132L19.01 7.10235C19.1263 6.98596 19.2185 6.84775 19.2813 6.69565C19.344 6.54354 19.3762 6.38054 19.3758 6.21599C19.3754 6.05145 19.3426 5.88859 19.2791 5.73676C19.2157 5.58494 19.1229 5.44714 19.0061 5.33126ZM8.09512 16.25L2.49981 10.625L4.37481 8.75001C4.37709 8.75189 4.37918 8.75398 4.38106 8.75626L7.68966 11.9664C7.80645 12.0807 7.96336 12.1447 8.12676 12.1447C8.29017 12.1447 8.44708 12.0807 8.56387 11.9664L16.2545 4.37501L18.1248 6.21876L8.09512 16.25Z" fill="#003914"/>
</svg>
