<svg width="22" height="22" viewBox="0 0 22 22" fill="none" xmlns="http://www.w3.org/2000/svg">
<g clip-path="url(#clip0_4111_4086)">
<path opacity="0.2" d="M5.45608 13.2864L8.92263 16.4077L5.04781 18.0502C4.94101 18.096 4.82334 18.1102 4.7087 18.0912C4.59407 18.0722 4.48727 18.0208 4.40092 17.9431C4.31457 17.8653 4.25229 17.7645 4.22142 17.6525C4.19056 17.5405 4.1924 17.422 4.22675 17.3109L5.45608 13.2864ZM16.2672 12.3506L8.72327 5.55795C8.64719 5.48946 8.55507 5.44127 8.45542 5.41783C8.35578 5.3944 8.25183 5.39647 8.1532 5.42387C8.05457 5.45127 7.96445 5.5031 7.89116 5.57457C7.81788 5.64604 7.76381 5.73484 7.73395 5.83276L6.73913 9.09242L12.9645 14.6977L16.1023 13.3676C16.197 13.3275 16.2801 13.264 16.3437 13.183C16.4072 13.102 16.4492 13.0063 16.4657 12.9047C16.4821 12.8031 16.4726 12.6989 16.4379 12.602C16.4032 12.5051 16.3445 12.4186 16.2672 12.3506Z" fill="#AA0A6A"/>
<path d="M9.14164 5.09322C8.98738 4.9547 8.80072 4.85726 8.59888 4.80989C8.39704 4.76253 8.18652 4.76677 7.98675 4.82221C7.78698 4.87766 7.60439 4.98253 7.45584 5.12715C7.30729 5.27177 7.19755 5.45148 7.13676 5.64969L3.63193 17.1285C3.5744 17.3178 3.5631 17.5181 3.59901 17.7127C3.63491 17.9072 3.71696 18.0903 3.83827 18.2466C3.95958 18.4029 4.11661 18.5278 4.29618 18.6108C4.47574 18.6938 4.67261 18.7325 4.87024 18.7237C5.01564 18.7151 5.15842 18.6812 5.29213 18.6234L16.3409 13.9372C16.5318 13.8561 16.6991 13.7282 16.8275 13.5654C16.9559 13.4026 17.0412 13.21 17.0755 13.0055C17.1098 12.801 17.0921 12.5912 17.024 12.3954C16.9558 12.1995 16.8394 12.024 16.6856 11.8851L9.14164 5.09322ZM9.04459 15.6761L6.17085 13.0886L7.04952 10.2097L11.8158 14.5013L9.04459 15.6761ZM4.83538 17.4613L5.77058 14.4074L7.77809 16.215L4.83538 17.4613ZM13.0886 13.9621L7.45275 8.88759L8.32032 6.03593L15.8273 12.7953L13.0886 13.9621ZM13.0055 6.40608C12.9951 5.98352 13.0755 5.56366 13.2414 5.17486C13.6116 4.32698 14.3679 3.83125 15.3712 3.77867C15.8939 3.75127 16.2201 3.55503 16.4067 3.16035C16.5043 2.9399 16.5544 2.70137 16.5538 2.46028C16.5458 2.29471 16.6038 2.13273 16.7152 2.00996C16.8266 1.88719 16.9822 1.8137 17.1477 1.80564C17.3133 1.79759 17.4753 1.85564 17.5981 1.96701C17.7208 2.07839 17.7943 2.23398 17.8024 2.39954C17.855 3.40285 17.2685 4.93095 15.4366 5.02696C14.9139 5.05435 14.5878 5.25059 14.4012 5.64528C14.3036 5.86573 14.2534 6.10425 14.254 6.34534C14.258 6.42732 14.2458 6.50929 14.2181 6.58655C14.1904 6.66382 14.1478 6.73487 14.0926 6.79566C14.0375 6.85645 13.9709 6.90578 13.8967 6.94084C13.8225 6.97589 13.7421 6.99599 13.6601 6.99998C13.5781 7.00397 13.4962 6.99177 13.4189 6.96408C13.3416 6.93639 13.2706 6.89376 13.2098 6.83861C13.149 6.78346 13.0997 6.71688 13.0646 6.64267C13.0296 6.56845 13.0095 6.48806 13.0055 6.40608ZM11.0022 4.00764L10.9041 2.13521C10.8954 1.96967 10.9528 1.80747 11.0638 1.68429C11.1747 1.56111 11.33 1.48703 11.4955 1.47835C11.6611 1.46968 11.8233 1.52712 11.9464 1.63803C12.0696 1.74895 12.1437 1.90425 12.1524 2.06979L12.2505 3.94222C12.2592 4.10775 12.2017 4.26995 12.0908 4.39313C11.9799 4.51632 11.8246 4.5904 11.6591 4.59907C11.4935 4.60775 11.3313 4.55031 11.2082 4.43939C11.085 4.32848 11.0109 4.17317 11.0022 4.00764ZM19.2702 10.016C19.3312 10.0709 19.3807 10.1374 19.416 10.2115C19.4513 10.2856 19.4717 10.3659 19.476 10.4479C19.4802 10.5298 19.4683 10.6119 19.4409 10.6892C19.4134 10.7666 19.371 10.8378 19.3161 10.8988C19.2611 10.9597 19.1947 11.0093 19.1206 11.0446C19.0465 11.0799 18.9661 11.1003 18.8842 11.1045C18.8022 11.1088 18.7202 11.0969 18.6428 11.0694C18.5654 11.042 18.4942 10.9996 18.4333 10.9446L17.1196 9.76177C16.9963 9.6508 16.9222 9.4954 16.9135 9.32978C16.9048 9.16415 16.9623 9.00186 17.0733 8.87861C17.1843 8.75536 17.3396 8.68124 17.5053 8.67256C17.6709 8.66388 17.8332 8.72135 17.9564 8.83233L19.2702 10.016ZM19.4753 6.66079L17.6356 7.38307C17.4813 7.44365 17.3093 7.44045 17.1573 7.37418C17.0054 7.3079 16.886 7.18398 16.8254 7.02967C16.7648 6.87537 16.768 6.70332 16.8343 6.55137C16.9006 6.39942 17.0245 6.28002 17.1788 6.21944L19.0185 5.49717C19.1728 5.43659 19.3449 5.43979 19.4968 5.50606C19.6488 5.57234 19.7682 5.69626 19.8287 5.85056C19.8893 6.00487 19.8861 6.17692 19.8198 6.32887C19.7536 6.48082 19.6296 6.60021 19.4753 6.66079Z" fill="#AA0A6A"/>
</g>
<defs>
<clipPath id="clip0_4111_4086">
<rect width="20" height="20" fill="white" transform="translate(0.228516 1.44299) rotate(-3)"/>
</clipPath>
</defs>
</svg>
