<svg width="22" height="22" viewBox="0 0 22 22" fill="none" xmlns="http://www.w3.org/2000/svg">
<g clip-path="url(#clip0_4111_4090)">
<path opacity="0.2" d="M11.372 9.49699C11.3299 10.2994 11.0509 11.0713 10.5701 11.7151C10.0894 12.3589 9.42851 12.8456 8.67111 13.1139C7.91371 13.3821 7.09379 13.4197 6.31502 13.2219C5.53626 13.0241 4.83363 12.5998 4.296 12.0027C3.75836 11.4056 3.40986 10.6625 3.29456 9.86732C3.17927 9.07215 3.30236 8.26064 3.64827 7.53543C3.99418 6.81021 4.54737 6.20386 5.23789 5.79304C5.92842 5.38222 6.72525 5.1854 7.52764 5.22745C8.6036 5.28384 9.6131 5.76534 10.334 6.56604C11.055 7.36673 11.4283 8.42103 11.372 9.49699Z" fill="#0C0C0C"/>
<path d="M9.70475 13.315C10.5704 12.8019 11.248 12.0239 11.6374 11.0959C12.0267 10.168 12.107 9.13938 11.8665 8.16223C11.626 7.18508 11.0775 6.31127 10.3019 5.67C9.52642 5.02873 8.56512 4.65407 7.56019 4.6014C6.55525 4.54873 5.56005 4.82087 4.72175 5.37755C3.88344 5.93424 3.24654 6.74593 2.90522 7.69259C2.56391 8.63925 2.5363 9.67062 2.82648 10.6342C3.11666 11.5977 3.70923 12.4423 4.51655 13.0431C2.97416 13.5215 1.6278 14.4858 0.678362 15.7921C0.628591 15.8583 0.592476 15.9337 0.572117 16.014C0.551759 16.0943 0.547562 16.1778 0.559771 16.2597C0.571979 16.3417 0.60035 16.4203 0.643234 16.4912C0.686119 16.5621 0.74266 16.6237 0.809573 16.6725C0.876486 16.7213 0.952435 16.7564 1.03301 16.7756C1.11358 16.7948 1.19716 16.7978 1.2789 16.7844C1.36064 16.771 1.43891 16.7415 1.50915 16.6976C1.57939 16.6538 1.64021 16.5963 1.68807 16.5287C2.30046 15.6868 3.11347 15.0112 4.05326 14.5632C4.99306 14.1153 6.02986 13.9092 7.06953 13.9637C8.10919 14.0182 9.11878 14.3315 10.0066 14.8752C10.8944 15.419 11.6324 16.1759 12.1534 17.0772C12.2378 17.218 12.3743 17.32 12.5333 17.3611C12.6923 17.4021 12.861 17.3789 13.0031 17.2966C13.1451 17.2142 13.249 17.0792 13.2924 16.9208C13.3357 16.7624 13.3149 16.5933 13.2346 16.4501C12.4269 15.0517 11.1887 13.952 9.70475 13.315ZM3.88197 9.10447C3.91755 8.42553 4.15367 7.77239 4.56045 7.22763C4.96724 6.68288 5.52642 6.27099 6.1673 6.04405C6.80818 5.8171 7.50196 5.78529 8.16091 5.95264C8.81987 6.12 9.4144 6.47899 9.86932 6.98424C10.3242 7.48948 10.6191 8.11828 10.7167 8.79112C10.8142 9.46396 10.7101 10.1506 10.4174 10.7643C10.1247 11.3779 9.65662 11.891 9.07233 12.2386C8.48804 12.5862 7.8138 12.7527 7.13486 12.7172C6.2248 12.6684 5.37122 12.2607 4.7614 11.5834C4.15158 10.9062 3.83531 10.0146 3.88197 9.10447ZM19.8731 17.664C19.7297 17.7472 19.5592 17.77 19.399 17.7274C19.2388 17.6848 19.1021 17.5804 19.019 17.437C18.4986 16.5352 17.7608 15.778 16.8728 15.2345C15.9848 14.6909 14.9748 14.3784 13.935 14.3253C13.7695 14.3166 13.6142 14.2425 13.5033 14.1193C13.3923 13.9961 13.3349 13.8339 13.3436 13.6684C13.3523 13.5029 13.4263 13.3476 13.5495 13.2367C13.6727 13.1257 13.8349 13.0683 14.0004 13.077C14.506 13.103 15.0111 13.017 15.4795 12.8252C15.948 12.6334 16.3684 12.3405 16.7105 11.9674C17.0527 11.5943 17.3082 11.1503 17.4589 10.667C17.6095 10.1837 17.6516 9.67311 17.582 9.17168C17.5124 8.67026 17.333 8.19039 17.0565 7.76635C16.78 7.34232 16.4132 6.98459 15.9824 6.71873C15.5516 6.45287 15.0674 6.28544 14.5644 6.22841C14.0614 6.17137 13.552 6.22613 13.0726 6.38878C12.9943 6.41787 12.911 6.43096 12.8276 6.4273C12.7441 6.42363 12.6623 6.40328 12.5868 6.36744C12.5114 6.3316 12.4439 6.281 12.3883 6.21863C12.3328 6.15627 12.2903 6.0834 12.2633 6.00433C12.2364 5.92526 12.2256 5.8416 12.2316 5.75829C12.2376 5.67498 12.2602 5.59371 12.2981 5.51928C12.336 5.44485 12.3884 5.37877 12.4523 5.32495C12.5161 5.27113 12.5901 5.23066 12.6699 5.20593C13.7671 4.83366 14.9632 4.88088 16.0275 5.33848C17.0919 5.79608 17.9491 6.63164 18.4338 7.68396C18.9184 8.73628 18.9962 9.93081 18.6521 11.0371C18.308 12.1434 17.5664 13.083 16.5703 13.6748C18.0543 14.3118 19.2925 15.4115 20.1001 16.8099C20.1833 16.9533 20.2061 17.1238 20.1635 17.284C20.1209 17.4442 20.0165 17.5809 19.8731 17.664Z" fill="#0C0C0C"/>
</g>
<defs>
<clipPath id="clip0_4111_4090">
<rect width="20" height="20" fill="white" transform="translate(1.20312 0.514984) rotate(3)"/>
</clipPath>
</defs>
</svg>
