<svg width="21" height="22" viewBox="0 0 21 22" fill="none" xmlns="http://www.w3.org/2000/svg">
<path opacity="0.2" d="M17.7767 10.7733C17.8029 12.2564 17.3887 13.714 16.5865 14.9618C15.7843 16.2095 14.6301 17.1913 13.2699 17.7831C11.9097 18.3749 10.4046 18.5501 8.94485 18.2864C7.48511 18.0228 6.13632 17.3322 5.06906 16.302C4.0018 15.2718 3.26399 13.9483 2.94894 12.4987C2.63389 11.0492 2.75575 9.53883 3.2991 8.15857C3.84246 6.77831 4.78291 5.59017 6.00152 4.74439C7.22014 3.89862 8.66219 3.4332 10.1453 3.40699C12.1341 3.37185 14.0554 4.12819 15.4866 5.50965C16.9178 6.8911 17.7415 8.78449 17.7767 10.7733Z" fill="#0C0C0C"/>
<path d="M10.1355 2.78209C8.52873 2.81048 6.96651 3.31468 5.64634 4.23094C4.32618 5.14719 3.30736 6.43435 2.71872 7.92963C2.13009 9.42491 1.99808 11.0612 2.33938 12.6315C2.68068 14.2018 3.47997 15.6356 4.63617 16.7517C5.79237 17.8677 7.25356 18.6159 8.83495 18.9015C10.4163 19.1871 12.0469 18.9973 13.5205 18.3562C14.994 17.7151 16.2444 16.6515 17.1134 15.2998C17.9824 13.948 18.4311 12.369 18.4027 10.7623C18.3624 8.60845 17.4693 6.55861 15.9194 5.06252C14.3695 3.56643 12.2893 2.7463 10.1355 2.78209ZM10.4005 17.7797C9.04095 17.8038 7.70482 17.4241 6.56106 16.6888C5.4173 15.9534 4.51728 14.8954 3.97481 13.6486C3.43235 12.4017 3.2718 11.022 3.51347 9.68392C3.75514 8.34582 4.38817 7.10944 5.33252 6.13111C6.27687 5.15279 7.49011 4.47647 8.81884 4.18767C10.1476 3.89888 11.5321 4.01058 12.7973 4.50865C14.0626 5.00673 15.1517 5.86881 15.927 6.98587C16.7023 8.10294 17.1289 9.42482 17.1529 10.7843C17.1831 12.6068 16.4891 14.3668 15.2232 15.6783C13.9573 16.9897 12.2229 17.7455 10.4005 17.7797ZM6.50199 9.40982C6.49871 9.22443 6.55048 9.04223 6.65076 8.88626C6.75103 8.7303 6.8953 8.60757 7.06533 8.53359C7.23535 8.45962 7.4235 8.43773 7.60597 8.47068C7.78843 8.50364 7.95703 8.58996 8.09044 8.71873C8.22385 8.84751 8.31607 9.01295 8.35545 9.19414C8.39483 9.37533 8.3796 9.56413 8.31168 9.73666C8.24376 9.9092 8.12621 10.0577 7.97388 10.1634C7.82155 10.2692 7.6413 10.3273 7.45591 10.3306C7.20731 10.335 6.96714 10.2405 6.78825 10.0678C6.60935 9.8951 6.50638 9.65842 6.50199 9.40982ZM14.0008 9.27731C14.0041 9.4627 13.9523 9.6449 13.852 9.80086C13.7518 9.95683 13.6075 10.0796 13.4375 10.1535C13.2675 10.2275 13.0793 10.2494 12.8968 10.2164C12.7144 10.1835 12.5458 10.0972 12.4124 9.96839C12.279 9.83962 12.1867 9.67418 12.1474 9.49299C12.108 9.3118 12.1232 9.123 12.1911 8.95047C12.259 8.77793 12.3766 8.62941 12.5289 8.52369C12.6813 8.41797 12.8615 8.35979 13.0469 8.35652C13.2955 8.35212 13.5357 8.44667 13.7146 8.61935C13.8935 8.79203 13.9964 9.02871 14.0008 9.27731ZM13.9827 13.0282C13.2035 14.432 11.8819 15.2532 10.3563 15.2801C8.83077 15.3071 7.48096 14.5339 6.65261 13.1577C6.60614 13.0874 6.57437 13.0084 6.55922 12.9255C6.54408 12.8426 6.54586 12.7574 6.56446 12.6752C6.58307 12.593 6.61811 12.5154 6.66748 12.4471C6.71685 12.3788 6.77954 12.3212 6.85176 12.2777C6.92398 12.2342 7.00425 12.2058 7.08773 12.1942C7.17122 12.1825 7.2562 12.1879 7.33755 12.2099C7.41891 12.232 7.49497 12.2703 7.56115 12.3225C7.62733 12.3747 7.68226 12.4397 7.72265 12.5137C8.32397 13.5119 9.2508 14.0495 10.3342 14.0303C11.4176 14.0112 12.3249 13.4404 12.8906 12.4224C12.9283 12.347 12.9809 12.2801 13.0452 12.2256C13.1095 12.1711 13.1842 12.1301 13.2647 12.1052C13.3452 12.0803 13.43 12.0719 13.5138 12.0806C13.5977 12.0893 13.6789 12.1149 13.7526 12.1557C13.8263 12.1966 13.891 12.252 13.9427 12.3185C13.9945 12.3851 14.0323 12.4614 14.0538 12.5429C14.0753 12.6244 14.08 12.7094 14.0678 12.7928C14.0556 12.8762 14.0267 12.9563 13.9827 13.0282Z" fill="#0C0C0C"/>
</svg>
