<svg width="31" height="34" viewBox="0 0 31 34" fill="none" xmlns="http://www.w3.org/2000/svg">
<g filter="url(#filter0_d_3008_8064)">
<path d="M5.49049 32.7594H20.5095C22.9895 32.7594 25 30.749 25 28.2689V16.5535C25 16.3091 24.9026 16.0747 24.7294 15.9022L14.3405 5.55892C14.2448 5.46365 14.1153 5.41016 13.9802 5.41016H5.49049C3.01046 5.41016 1 7.42062 1 9.90065L1 28.2689C1 30.749 3.01046 32.7594 5.49049 32.7594Z" fill="white"/>
</g>
<g filter="url(#filter1_di_3008_8064)">
<path d="M5.49049 32.7594H20.5095C22.9895 32.7594 25 30.749 25 28.2689V17.7524C25 17.5081 24.9027 17.2739 24.7297 17.1014L13.1495 5.55912C13.0537 5.46372 12.9241 5.41016 12.789 5.41016H5.49049C3.01046 5.41016 1 7.42062 1 9.90065L1 28.2689C1 30.749 3.01046 32.7594 5.49049 32.7594Z" fill="url(#paint0_linear_3008_8064)"/>
</g>
<g filter="url(#filter2_ii_3008_8064)">
<path d="M8.653 26.2544C8.149 26.2544 7.71383 26.1447 7.3475 25.9254C6.9835 25.7061 6.70233 25.3992 6.504 25.0049C6.308 24.6106 6.21 24.1521 6.21 23.6294C6.21 23.1067 6.308 22.6482 6.504 22.2539C6.70233 21.8596 6.9835 21.5527 7.3475 21.3334C7.71383 21.1141 8.149 21.0044 8.653 21.0044C9.23167 21.0044 9.717 21.1479 10.109 21.4349C10.5033 21.7219 10.781 22.1104 10.942 22.6004L9.983 22.8664C9.88967 22.5607 9.73217 22.3239 9.5105 22.1559C9.28883 21.9856 9.003 21.9004 8.653 21.9004C8.33333 21.9004 8.06617 21.9716 7.8515 22.1139C7.63917 22.2562 7.47933 22.4569 7.372 22.7159C7.26467 22.9749 7.211 23.2794 7.211 23.6294C7.211 23.9794 7.26467 24.2839 7.372 24.5429C7.47933 24.8019 7.63917 25.0026 7.8515 25.1449C8.06617 25.2872 8.33333 25.3584 8.653 25.3584C9.003 25.3584 9.28883 25.2732 9.5105 25.1029C9.73217 24.9326 9.88967 24.6957 9.983 24.3924L10.942 24.6584C10.781 25.1484 10.5033 25.5369 10.109 25.8239C9.717 26.1109 9.23167 26.2544 8.653 26.2544ZM13.8286 26.2544C13.4552 26.2544 13.1181 26.1891 12.8171 26.0584C12.5184 25.9254 12.2722 25.7364 12.0786 25.4914C11.8872 25.2441 11.7659 24.9501 11.7146 24.6094L12.7086 24.4624C12.7786 24.7517 12.9232 24.9746 13.1426 25.1309C13.3619 25.2872 13.6116 25.3654 13.8916 25.3654C14.0479 25.3654 14.1996 25.3409 14.3466 25.2919C14.4936 25.2429 14.6137 25.1706 14.7071 25.0749C14.8027 24.9792 14.8506 24.8614 14.8506 24.7214C14.8506 24.6701 14.8424 24.6211 14.8261 24.5744C14.8121 24.5254 14.7876 24.4799 14.7526 24.4379C14.7176 24.3959 14.6674 24.3562 14.6021 24.3189C14.5391 24.2816 14.4586 24.2477 14.3606 24.2174L13.0516 23.8324C12.9536 23.8044 12.8392 23.7647 12.7086 23.7134C12.5802 23.6621 12.4554 23.5886 12.3341 23.4929C12.2127 23.3972 12.1112 23.2712 12.0296 23.1149C11.9502 22.9562 11.9106 22.7567 11.9106 22.5164C11.9106 22.1781 11.9957 21.8969 12.1661 21.6729C12.3364 21.4489 12.5639 21.2821 12.8486 21.1724C13.1332 21.0627 13.4482 21.0091 13.7936 21.0114C14.1412 21.0161 14.4516 21.0756 14.7246 21.1899C14.9976 21.3042 15.2262 21.4711 15.4106 21.6904C15.5949 21.9074 15.7279 22.1734 15.8096 22.4884L14.7806 22.6634C14.7432 22.5001 14.6744 22.3624 14.5741 22.2504C14.4737 22.1384 14.3536 22.0532 14.2136 21.9949C14.0759 21.9366 13.9312 21.9051 13.7796 21.9004C13.6302 21.8957 13.4891 21.9167 13.3561 21.9634C13.2254 22.0077 13.1181 22.0731 13.0341 22.1594C12.9524 22.2457 12.9116 22.3484 12.9116 22.4674C12.9116 22.5771 12.9454 22.6669 13.0131 22.7369C13.0807 22.8046 13.1659 22.8594 13.2686 22.9014C13.3712 22.9434 13.4762 22.9784 13.5836 23.0064L14.4586 23.2444C14.5892 23.2794 14.7339 23.3261 14.8926 23.3844C15.0512 23.4404 15.2029 23.5197 15.3476 23.6224C15.4946 23.7227 15.6147 23.8557 15.7081 24.0214C15.8037 24.1871 15.8516 24.3971 15.8516 24.6514C15.8516 24.9221 15.7944 25.1589 15.6801 25.3619C15.5681 25.5626 15.4164 25.7294 15.2251 25.8624C15.0337 25.9931 14.8167 26.0911 14.5741 26.1564C14.3337 26.2217 14.0852 26.2544 13.8286 26.2544ZM17.5691 26.1494L16.0291 21.1094H17.0091L18.2691 25.2534L19.5501 21.1094H20.5301L18.9901 26.1494H17.5691Z" fill="#3F2E00"/>
</g>
<g filter="url(#filter3_dd_3008_8064)">
<path d="M13.0087 5.39632L12.9922 5.37988C12.9922 5.37988 12.998 5.38498 13.0087 5.39632L24.843 17.1968C24.843 17.1968 24.0369 16.393 21.0872 16.393C19.7045 16.393 17.8395 16.6081 16.248 16.8367C14.6801 17.0618 13.2956 15.6829 13.4937 14.1114C13.6721 12.6964 13.8296 11.0263 13.8296 9.5404C13.8296 6.39971 13.126 5.521 13.0087 5.39632Z" fill="url(#paint1_linear_3008_8064)"/>
</g>
<g filter="url(#filter4_ddd_3008_8064)">
<path d="M14.1349 5.39575L14.1191 5.37988C14.1191 5.37988 14.1247 5.38479 14.1349 5.39575L24.9568 16.2881C24.9738 16.3048 24.9824 16.3138 24.9824 16.3138L24.9568 16.2881C24.7565 16.0915 23.3878 14.8382 21.0577 14.8382C19.7153 14.8382 17.8425 15.0752 16.3808 15.2976C15.2923 15.4631 14.3299 14.5048 14.4788 13.4139C14.658 12.101 14.8369 10.4222 14.8369 8.95303C14.8369 6.26993 14.2402 5.50907 14.1349 5.39575Z" fill="url(#paint2_linear_3008_8064)"/>
</g>
<defs>
<filter id="filter0_d_3008_8064" x="0.574351" y="5.12639" width="24.8513" height="28.2009" filterUnits="userSpaceOnUse" color-interpolation-filters="sRGB">
<feFlood flood-opacity="0" result="BackgroundImageFix"/>
<feColorMatrix in="SourceAlpha" type="matrix" values="0 0 0 0 0 0 0 0 0 0 0 0 0 0 0 0 0 0 127 0" result="hardAlpha"/>
<feOffset dy="0.141883"/>
<feGaussianBlur stdDeviation="0.212824"/>
<feComposite in2="hardAlpha" operator="out"/>
<feColorMatrix type="matrix" values="0 0 0 0 0 0 0 0 0 0 0 0 0 0 0 0 0 0 0.19 0"/>
<feBlend mode="normal" in2="BackgroundImageFix" result="effect1_dropShadow_3008_8064"/>
<feBlend mode="normal" in="SourceGraphic" in2="effect1_dropShadow_3008_8064" result="shape"/>
</filter>
<filter id="filter1_di_3008_8064" x="1" y="5.26827" width="24.1419" height="27.4915" filterUnits="userSpaceOnUse" color-interpolation-filters="sRGB">
<feFlood flood-opacity="0" result="BackgroundImageFix"/>
<feColorMatrix in="SourceAlpha" type="matrix" values="0 0 0 0 0 0 0 0 0 0 0 0 0 0 0 0 0 0 127 0" result="hardAlpha"/>
<feOffset dy="-0.141883"/>
<feComposite in2="hardAlpha" operator="out"/>
<feColorMatrix type="matrix" values="0 0 0 0 0 0 0 0 0 0 0 0 0 0 0 0 0 0 0.2 0"/>
<feBlend mode="normal" in2="BackgroundImageFix" result="effect1_dropShadow_3008_8064"/>
<feBlend mode="normal" in="SourceGraphic" in2="effect1_dropShadow_3008_8064" result="shape"/>
<feColorMatrix in="SourceAlpha" type="matrix" values="0 0 0 0 0 0 0 0 0 0 0 0 0 0 0 0 0 0 127 0" result="hardAlpha"/>
<feOffset dx="0.141883" dy="-0.425649"/>
<feGaussianBlur stdDeviation="0.0709415"/>
<feComposite in2="hardAlpha" operator="arithmetic" k2="-1" k3="1"/>
<feColorMatrix type="matrix" values="0 0 0 0 0 0 0 0 0 0 0 0 0 0 0 0 0 0 0.19 0"/>
<feBlend mode="normal" in2="shape" result="effect2_innerShadow_3008_8064"/>
</filter>
<filter id="filter2_ii_3008_8064" x="6.21094" y="21.0049" width="14.3184" height="8.13064" filterUnits="userSpaceOnUse" color-interpolation-filters="sRGB">
<feFlood flood-opacity="0" result="BackgroundImageFix"/>
<feBlend mode="normal" in="SourceGraphic" in2="BackgroundImageFix" result="shape"/>
<feColorMatrix in="SourceAlpha" type="matrix" values="0 0 0 0 0 0 0 0 0 0 0 0 0 0 0 0 0 0 127 0" result="hardAlpha"/>
<feOffset dy="2.88161"/>
<feGaussianBlur stdDeviation="2.88161"/>
<feComposite in2="hardAlpha" operator="arithmetic" k2="-1" k3="1"/>
<feColorMatrix type="matrix" values="0 0 0 0 1 0 0 0 0 1 0 0 0 0 1 0 0 0 0.24 0"/>
<feBlend mode="normal" in2="shape" result="effect1_innerShadow_3008_8064"/>
<feColorMatrix in="SourceAlpha" type="matrix" values="0 0 0 0 0 0 0 0 0 0 0 0 0 0 0 0 0 0 127 0" result="hardAlpha"/>
<feOffset dy="1.02373"/>
<feComposite in2="hardAlpha" operator="arithmetic" k2="-1" k3="1"/>
<feColorMatrix type="matrix" values="0 0 0 0 1 0 0 0 0 1 0 0 0 0 1 0 0 0 0.12 0"/>
<feBlend mode="normal" in2="effect1_innerShadow_3008_8064" result="effect2_innerShadow_3008_8064"/>
</filter>
<filter id="filter3_dd_3008_8064" x="7.37907" y="0.889389" width="23.0778" height="23.0436" filterUnits="userSpaceOnUse" color-interpolation-filters="sRGB">
<feFlood flood-opacity="0" result="BackgroundImageFix"/>
<feColorMatrix in="SourceAlpha" type="matrix" values="0 0 0 0 0 0 0 0 0 0 0 0 0 0 0 0 0 0 127 0" result="hardAlpha"/>
<feOffset dy="1.12262"/>
<feGaussianBlur stdDeviation="2.80656"/>
<feComposite in2="hardAlpha" operator="out"/>
<feColorMatrix type="matrix" values="0 0 0 0 0 0 0 0 0 0 0 0 0 0 0 0 0 0 0.09 0"/>
<feBlend mode="normal" in2="BackgroundImageFix" result="effect1_dropShadow_3008_8064"/>
<feColorMatrix in="SourceAlpha" type="matrix" values="0 0 0 0 0 0 0 0 0 0 0 0 0 0 0 0 0 0 127 0" result="hardAlpha"/>
<feOffset dy="0.561312"/>
<feGaussianBlur stdDeviation="0.841968"/>
<feComposite in2="hardAlpha" operator="out"/>
<feColorMatrix type="matrix" values="0 0 0 0 0 0 0 0 0 0 0 0 0 0 0 0 0 0 0.1 0"/>
<feBlend mode="normal" in2="effect1_dropShadow_3008_8064" result="effect2_dropShadow_3008_8064"/>
<feBlend mode="normal" in="SourceGraphic" in2="effect2_dropShadow_3008_8064" result="shape"/>
</filter>
<filter id="filter4_ddd_3008_8064" x="8.50602" y="0.889389" width="22.0895" height="22.1598" filterUnits="userSpaceOnUse" color-interpolation-filters="sRGB">
<feFlood flood-opacity="0" result="BackgroundImageFix"/>
<feColorMatrix in="SourceAlpha" type="matrix" values="0 0 0 0 0 0 0 0 0 0 0 0 0 0 0 0 0 0 127 0" result="hardAlpha"/>
<feOffset dy="1.12262"/>
<feGaussianBlur stdDeviation="2.80656"/>
<feComposite in2="hardAlpha" operator="out"/>
<feColorMatrix type="matrix" values="0 0 0 0 0 0 0 0 0 0 0 0 0 0 0 0 0 0 0.09 0"/>
<feBlend mode="normal" in2="BackgroundImageFix" result="effect1_dropShadow_3008_8064"/>
<feColorMatrix in="SourceAlpha" type="matrix" values="0 0 0 0 0 0 0 0 0 0 0 0 0 0 0 0 0 0 127 0" result="hardAlpha"/>
<feOffset dy="0.561312"/>
<feGaussianBlur stdDeviation="0.841968"/>
<feComposite in2="hardAlpha" operator="out"/>
<feColorMatrix type="matrix" values="0 0 0 0 0 0 0 0 0 0 0 0 0 0 0 0 0 0 0.1 0"/>
<feBlend mode="normal" in2="effect1_dropShadow_3008_8064" result="effect2_dropShadow_3008_8064"/>
<feColorMatrix in="SourceAlpha" type="matrix" values="0 0 0 0 0 0 0 0 0 0 0 0 0 0 0 0 0 0 127 0" result="hardAlpha"/>
<feOffset dy="0.425649"/>
<feGaussianBlur stdDeviation="0.283766"/>
<feComposite in2="hardAlpha" operator="out"/>
<feColorMatrix type="matrix" values="0 0 0 0 0 0 0 0 0 0 0 0 0 0 0 0 0 0 0.1 0"/>
<feBlend mode="normal" in2="effect2_dropShadow_3008_8064" result="effect3_dropShadow_3008_8064"/>
<feBlend mode="normal" in="SourceGraphic" in2="effect3_dropShadow_3008_8064" result="shape"/>
</filter>
<linearGradient id="paint0_linear_3008_8064" x1="21.8034" y1="30.5918" x2="3.48362" y2="5.37914" gradientUnits="userSpaceOnUse">
<stop stop-color="#EEEEEE"/>
<stop offset="1" stop-color="#F5F5F5"/>
</linearGradient>
<linearGradient id="paint1_linear_3008_8064" x1="18.8541" y1="11.2536" x2="14.7293" y2="15.9581" gradientUnits="userSpaceOnUse">
<stop stop-color="white"/>
<stop offset="0.141768" stop-color="#FBFBFB"/>
<stop offset="0.495941" stop-color="#EEEEEE"/>
<stop offset="1" stop-color="#F1F1F1"/>
</linearGradient>
<linearGradient id="paint2_linear_3008_8064" x1="19.1436" y1="10.4243" x2="15.6002" y2="14.4579" gradientUnits="userSpaceOnUse">
<stop stop-color="white"/>
<stop offset="0.0844748" stop-color="#F4F4F4"/>
<stop offset="0.209477" stop-color="#FBFBFB"/>
<stop offset="0.636568" stop-color="#EDEDED"/>
<stop offset="0.787613" stop-color="#ECECEC"/>
<stop offset="1" stop-color="white"/>
</linearGradient>
</defs>
</svg>
