<svg width="31" height="34" viewBox="0 0 31 34" fill="none" xmlns="http://www.w3.org/2000/svg">
<g filter="url(#filter0_d_3185_7608)">
<path d="M5.49049 32.5192H20.5095C22.9895 32.5192 25 30.5087 25 28.0287V16.3133C25 16.0688 24.9026 15.8344 24.7294 15.6619L14.3405 5.31869C14.2448 5.22341 14.1153 5.16992 13.9802 5.16992H5.49049C3.01046 5.16992 1 7.18039 1 9.66042L1 28.0287C1 30.5087 3.01046 32.5192 5.49049 32.5192Z" fill="white"/>
</g>
<g filter="url(#filter1_di_3185_7608)">
<path d="M5.49049 32.5192H20.5095C22.9895 32.5192 25 30.5087 25 28.0287V17.5122C25 17.2679 24.9027 17.0337 24.7297 16.8612L13.1495 5.31889C13.0537 5.22349 12.9241 5.16992 12.789 5.16992H5.49049C3.01046 5.16992 1 7.18039 1 9.66042L1 28.0287C1 30.5087 3.01046 32.5192 5.49049 32.5192Z" fill="url(#paint0_linear_3185_7608)"/>
</g>
<g filter="url(#filter2_ii_3185_7608)">
<path d="M6.07 25.9082L7.764 23.3602L6.119 20.8682H7.288L8.359 22.5482L9.416 20.8682H10.592L8.947 23.3602L10.634 25.9082H9.465L8.359 24.1722L7.246 25.9082H6.07ZM11.2631 25.9082V20.8682H12.2151V25.0192H14.3851V25.9082H11.2631ZM16.8842 26.0132C16.5109 26.0132 16.1737 25.9479 15.8727 25.8172C15.5741 25.6842 15.3279 25.4952 15.1342 25.2502C14.9429 25.0029 14.8216 24.7089 14.7702 24.3682L15.7642 24.2212C15.8342 24.5105 15.9789 24.7334 16.1982 24.8897C16.4176 25.046 16.6672 25.1242 16.9472 25.1242C17.1036 25.1242 17.2552 25.0997 17.4022 25.0507C17.5492 25.0017 17.6694 24.9294 17.7627 24.8337C17.8584 24.738 17.9062 24.6202 17.9062 24.4802C17.9062 24.4289 17.8981 24.3799 17.8817 24.3332C17.8677 24.2842 17.8432 24.2387 17.8082 24.1967C17.7732 24.1547 17.7231 24.115 17.6577 24.0777C17.5947 24.0404 17.5142 24.0065 17.4162 23.9762L16.1072 23.5912C16.0092 23.5632 15.8949 23.5235 15.7642 23.4722C15.6359 23.4209 15.5111 23.3474 15.3897 23.2517C15.2684 23.156 15.1669 23.03 15.0852 22.8737C15.0059 22.715 14.9662 22.5155 14.9662 22.2752C14.9662 21.9369 15.0514 21.6557 15.2217 21.4317C15.3921 21.2077 15.6196 21.0409 15.9042 20.9312C16.1889 20.8215 16.5039 20.7679 16.8492 20.7702C17.1969 20.7749 17.5072 20.8344 17.7802 20.9487C18.0532 21.063 18.2819 21.2299 18.4662 21.4492C18.6506 21.6662 18.7836 21.9322 18.8652 22.2472L17.8362 22.4222C17.7989 22.2589 17.7301 22.1212 17.6297 22.0092C17.5294 21.8972 17.4092 21.812 17.2692 21.7537C17.1316 21.6954 16.9869 21.6639 16.8352 21.6592C16.6859 21.6545 16.5447 21.6755 16.4117 21.7222C16.2811 21.7665 16.1737 21.8319 16.0897 21.9182C16.0081 22.0045 15.9672 22.1072 15.9672 22.2262C15.9672 22.3359 16.0011 22.4257 16.0687 22.4957C16.1364 22.5634 16.2216 22.6182 16.3242 22.6602C16.4269 22.7022 16.5319 22.7372 16.6392 22.7652L17.5142 23.0032C17.6449 23.0382 17.7896 23.0849 17.9482 23.1432C18.1069 23.1992 18.2586 23.2785 18.4032 23.3812C18.5502 23.4815 18.6704 23.6145 18.7637 23.7802C18.8594 23.9459 18.9072 24.1559 18.9072 24.4102C18.9072 24.6809 18.8501 24.9177 18.7357 25.1207C18.6237 25.3214 18.4721 25.4882 18.2807 25.6212C18.0894 25.7519 17.8724 25.8499 17.6297 25.9152C17.3894 25.9805 17.1409 26.0132 16.8842 26.0132Z" fill="#003914"/>
</g>
<g filter="url(#filter3_dd_3185_7608)">
<path d="M13.0087 5.15511L12.9922 5.13867C12.9922 5.13867 12.998 5.14377 13.0087 5.15511L24.843 16.9556C24.843 16.9556 24.0369 16.1518 21.0872 16.1518C19.7045 16.1518 17.8395 16.3669 16.248 16.5954C14.6801 16.8206 13.2956 15.4417 13.4937 13.8701C13.6721 12.4551 13.8296 10.7851 13.8296 9.29919C13.8296 6.1585 13.126 5.27979 13.0087 5.15511Z" fill="url(#paint1_linear_3185_7608)"/>
</g>
<g filter="url(#filter4_ddd_3185_7608)">
<path d="M14.1349 5.15454L14.1191 5.13867C14.1191 5.13867 14.1247 5.14358 14.1349 5.15454L24.9568 16.0468C24.9738 16.0636 24.9824 16.0726 24.9824 16.0726L24.9568 16.0468C24.7565 15.8503 23.3878 14.597 21.0577 14.597C19.7153 14.597 17.8425 14.834 16.3808 15.0563C15.2923 15.2219 14.3299 14.2636 14.4788 13.1727C14.658 11.8598 14.8369 10.181 14.8369 8.71182C14.8369 6.02872 14.2402 5.26786 14.1349 5.15454Z" fill="url(#paint2_linear_3185_7608)"/>
</g>
<defs>
<filter id="filter0_d_3185_7608" x="0.574351" y="4.88616" width="24.8513" height="28.2009" filterUnits="userSpaceOnUse" color-interpolation-filters="sRGB">
<feFlood flood-opacity="0" result="BackgroundImageFix"/>
<feColorMatrix in="SourceAlpha" type="matrix" values="0 0 0 0 0 0 0 0 0 0 0 0 0 0 0 0 0 0 127 0" result="hardAlpha"/>
<feOffset dy="0.141883"/>
<feGaussianBlur stdDeviation="0.212824"/>
<feComposite in2="hardAlpha" operator="out"/>
<feColorMatrix type="matrix" values="0 0 0 0 0 0 0 0 0 0 0 0 0 0 0 0 0 0 0.19 0"/>
<feBlend mode="normal" in2="BackgroundImageFix" result="effect1_dropShadow_3185_7608"/>
<feBlend mode="normal" in="SourceGraphic" in2="effect1_dropShadow_3185_7608" result="shape"/>
</filter>
<filter id="filter1_di_3185_7608" x="1" y="5.02804" width="24.1419" height="27.4915" filterUnits="userSpaceOnUse" color-interpolation-filters="sRGB">
<feFlood flood-opacity="0" result="BackgroundImageFix"/>
<feColorMatrix in="SourceAlpha" type="matrix" values="0 0 0 0 0 0 0 0 0 0 0 0 0 0 0 0 0 0 127 0" result="hardAlpha"/>
<feOffset dy="-0.141883"/>
<feComposite in2="hardAlpha" operator="out"/>
<feColorMatrix type="matrix" values="0 0 0 0 0 0 0 0 0 0 0 0 0 0 0 0 0 0 0.2 0"/>
<feBlend mode="normal" in2="BackgroundImageFix" result="effect1_dropShadow_3185_7608"/>
<feBlend mode="normal" in="SourceGraphic" in2="effect1_dropShadow_3185_7608" result="shape"/>
<feColorMatrix in="SourceAlpha" type="matrix" values="0 0 0 0 0 0 0 0 0 0 0 0 0 0 0 0 0 0 127 0" result="hardAlpha"/>
<feOffset dx="0.141883" dy="-0.425649"/>
<feGaussianBlur stdDeviation="0.0709415"/>
<feComposite in2="hardAlpha" operator="arithmetic" k2="-1" k3="1"/>
<feColorMatrix type="matrix" values="0 0 0 0 0 0 0 0 0 0 0 0 0 0 0 0 0 0 0.19 0"/>
<feBlend mode="normal" in2="shape" result="effect2_innerShadow_3185_7608"/>
</filter>
<filter id="filter2_ii_3185_7608" x="6.07031" y="20.7676" width="12.8379" height="8.12771" filterUnits="userSpaceOnUse" color-interpolation-filters="sRGB">
<feFlood flood-opacity="0" result="BackgroundImageFix"/>
<feBlend mode="normal" in="SourceGraphic" in2="BackgroundImageFix" result="shape"/>
<feColorMatrix in="SourceAlpha" type="matrix" values="0 0 0 0 0 0 0 0 0 0 0 0 0 0 0 0 0 0 127 0" result="hardAlpha"/>
<feOffset dy="2.88161"/>
<feGaussianBlur stdDeviation="2.88161"/>
<feComposite in2="hardAlpha" operator="arithmetic" k2="-1" k3="1"/>
<feColorMatrix type="matrix" values="0 0 0 0 1 0 0 0 0 1 0 0 0 0 1 0 0 0 0.24 0"/>
<feBlend mode="normal" in2="shape" result="effect1_innerShadow_3185_7608"/>
<feColorMatrix in="SourceAlpha" type="matrix" values="0 0 0 0 0 0 0 0 0 0 0 0 0 0 0 0 0 0 127 0" result="hardAlpha"/>
<feOffset dy="1.02373"/>
<feComposite in2="hardAlpha" operator="arithmetic" k2="-1" k3="1"/>
<feColorMatrix type="matrix" values="0 0 0 0 1 0 0 0 0 1 0 0 0 0 1 0 0 0 0.12 0"/>
<feBlend mode="normal" in2="effect1_innerShadow_3185_7608" result="effect2_innerShadow_3185_7608"/>
</filter>
<filter id="filter3_dd_3185_7608" x="7.37907" y="0.648178" width="23.0778" height="23.0426" filterUnits="userSpaceOnUse" color-interpolation-filters="sRGB">
<feFlood flood-opacity="0" result="BackgroundImageFix"/>
<feColorMatrix in="SourceAlpha" type="matrix" values="0 0 0 0 0 0 0 0 0 0 0 0 0 0 0 0 0 0 127 0" result="hardAlpha"/>
<feOffset dy="1.12262"/>
<feGaussianBlur stdDeviation="2.80656"/>
<feComposite in2="hardAlpha" operator="out"/>
<feColorMatrix type="matrix" values="0 0 0 0 0 0 0 0 0 0 0 0 0 0 0 0 0 0 0.09 0"/>
<feBlend mode="normal" in2="BackgroundImageFix" result="effect1_dropShadow_3185_7608"/>
<feColorMatrix in="SourceAlpha" type="matrix" values="0 0 0 0 0 0 0 0 0 0 0 0 0 0 0 0 0 0 127 0" result="hardAlpha"/>
<feOffset dy="0.561312"/>
<feGaussianBlur stdDeviation="0.841968"/>
<feComposite in2="hardAlpha" operator="out"/>
<feColorMatrix type="matrix" values="0 0 0 0 0 0 0 0 0 0 0 0 0 0 0 0 0 0 0.1 0"/>
<feBlend mode="normal" in2="effect1_dropShadow_3185_7608" result="effect2_dropShadow_3185_7608"/>
<feBlend mode="normal" in="SourceGraphic" in2="effect2_dropShadow_3185_7608" result="shape"/>
</filter>
<filter id="filter4_ddd_3185_7608" x="8.50602" y="0.648178" width="22.0895" height="22.1598" filterUnits="userSpaceOnUse" color-interpolation-filters="sRGB">
<feFlood flood-opacity="0" result="BackgroundImageFix"/>
<feColorMatrix in="SourceAlpha" type="matrix" values="0 0 0 0 0 0 0 0 0 0 0 0 0 0 0 0 0 0 127 0" result="hardAlpha"/>
<feOffset dy="1.12262"/>
<feGaussianBlur stdDeviation="2.80656"/>
<feComposite in2="hardAlpha" operator="out"/>
<feColorMatrix type="matrix" values="0 0 0 0 0 0 0 0 0 0 0 0 0 0 0 0 0 0 0.09 0"/>
<feBlend mode="normal" in2="BackgroundImageFix" result="effect1_dropShadow_3185_7608"/>
<feColorMatrix in="SourceAlpha" type="matrix" values="0 0 0 0 0 0 0 0 0 0 0 0 0 0 0 0 0 0 127 0" result="hardAlpha"/>
<feOffset dy="0.561312"/>
<feGaussianBlur stdDeviation="0.841968"/>
<feComposite in2="hardAlpha" operator="out"/>
<feColorMatrix type="matrix" values="0 0 0 0 0 0 0 0 0 0 0 0 0 0 0 0 0 0 0.1 0"/>
<feBlend mode="normal" in2="effect1_dropShadow_3185_7608" result="effect2_dropShadow_3185_7608"/>
<feColorMatrix in="SourceAlpha" type="matrix" values="0 0 0 0 0 0 0 0 0 0 0 0 0 0 0 0 0 0 127 0" result="hardAlpha"/>
<feOffset dy="0.425649"/>
<feGaussianBlur stdDeviation="0.283766"/>
<feComposite in2="hardAlpha" operator="out"/>
<feColorMatrix type="matrix" values="0 0 0 0 0 0 0 0 0 0 0 0 0 0 0 0 0 0 0.1 0"/>
<feBlend mode="normal" in2="effect2_dropShadow_3185_7608" result="effect3_dropShadow_3185_7608"/>
<feBlend mode="normal" in="SourceGraphic" in2="effect3_dropShadow_3185_7608" result="shape"/>
</filter>
<linearGradient id="paint0_linear_3185_7608" x1="21.8034" y1="30.3516" x2="3.48362" y2="5.1389" gradientUnits="userSpaceOnUse">
<stop stop-color="#EEEEEE"/>
<stop offset="1" stop-color="#F5F5F5"/>
</linearGradient>
<linearGradient id="paint1_linear_3185_7608" x1="18.8541" y1="11.0123" x2="14.7293" y2="15.7169" gradientUnits="userSpaceOnUse">
<stop stop-color="white"/>
<stop offset="0.141768" stop-color="#FBFBFB"/>
<stop offset="0.495941" stop-color="#EEEEEE"/>
<stop offset="1" stop-color="#F1F1F1"/>
</linearGradient>
<linearGradient id="paint2_linear_3185_7608" x1="19.1436" y1="10.1831" x2="15.6002" y2="14.2167" gradientUnits="userSpaceOnUse">
<stop stop-color="white"/>
<stop offset="0.0844748" stop-color="#F4F4F4"/>
<stop offset="0.209477" stop-color="#FBFBFB"/>
<stop offset="0.636568" stop-color="#EDEDED"/>
<stop offset="0.787613" stop-color="#ECECEC"/>
<stop offset="1" stop-color="white"/>
</linearGradient>
</defs>
</svg>
