<svg width="31" height="33" viewBox="0 0 31 33" fill="none" xmlns="http://www.w3.org/2000/svg">
<g filter="url(#filter0_d_3008_8092)">
<path d="M5.49049 32.3795H20.5095C22.9895 32.3795 25 30.3691 25 27.889V16.1736C25 15.9292 24.9026 15.6948 24.7294 15.5223L14.3405 5.17904C14.2448 5.08376 14.1153 5.03027 13.9802 5.03027H5.49049C3.01046 5.03027 1 7.04074 1 9.52077L1 27.889C1 30.3691 3.01046 32.3795 5.49049 32.3795Z" fill="white"/>
</g>
<g filter="url(#filter1_di_3008_8092)">
<path d="M5.49049 32.3795H20.5095C22.9895 32.3795 25 30.3691 25 27.889V17.3725C25 17.1283 24.9027 16.894 24.7297 16.7216L13.1495 5.17924C13.0537 5.08384 12.9241 5.03027 12.789 5.03027H5.49049C3.01046 5.03027 1 7.04074 1 9.52077L1 27.889C1 30.3691 3.01046 32.3795 5.49049 32.3795Z" fill="url(#paint0_linear_3008_8092)"/>
</g>
<g filter="url(#filter2_ii_3008_8092)">
<path d="M4.07 25.7695L5.764 23.2215L4.119 20.7295H5.288L6.359 22.4095L7.416 20.7295H8.592L6.947 23.2215L8.634 25.7695H7.465L6.359 24.0335L5.246 25.7695H4.07ZM9.26313 25.7695V20.7295H10.2151V24.8805H12.3851V25.7695H9.26313ZM14.8842 25.8745C14.5109 25.8745 14.1737 25.8092 13.8727 25.6785C13.5741 25.5455 13.3279 25.3565 13.1342 25.1115C12.9429 24.8642 12.8216 24.5702 12.7702 24.2295L13.7642 24.0825C13.8342 24.3719 13.9789 24.5947 14.1982 24.751C14.4176 24.9074 14.6672 24.9855 14.9472 24.9855C15.1036 24.9855 15.2552 24.961 15.4022 24.912C15.5492 24.863 15.6694 24.7907 15.7627 24.695C15.8584 24.5994 15.9062 24.4815 15.9062 24.3415C15.9062 24.2902 15.8981 24.2412 15.8817 24.1945C15.8677 24.1455 15.8432 24.1 15.8082 24.058C15.7732 24.016 15.7231 23.9764 15.6577 23.939C15.5947 23.9017 15.5142 23.8679 15.4162 23.8375L14.1072 23.4525C14.0092 23.4245 13.8949 23.3849 13.7642 23.3335C13.6359 23.2822 13.5111 23.2087 13.3897 23.113C13.2684 23.0174 13.1669 22.8914 13.0852 22.735C13.0059 22.5764 12.9662 22.3769 12.9662 22.1365C12.9662 21.7982 13.0514 21.517 13.2217 21.293C13.3921 21.069 13.6196 20.9022 13.9042 20.7925C14.1889 20.6829 14.5039 20.6292 14.8492 20.6315C15.1969 20.6362 15.5072 20.6957 15.7802 20.81C16.0532 20.9244 16.2819 21.0912 16.4662 21.3105C16.6506 21.5275 16.7836 21.7935 16.8652 22.1085L15.8362 22.2835C15.7989 22.1202 15.7301 21.9825 15.6297 21.8705C15.5294 21.7585 15.4092 21.6734 15.2692 21.615C15.1316 21.5567 14.9869 21.5252 14.8352 21.5205C14.6859 21.5159 14.5447 21.5369 14.4117 21.5835C14.2811 21.6279 14.1737 21.6932 14.0897 21.7795C14.0081 21.8659 13.9672 21.9685 13.9672 22.0875C13.9672 22.1972 14.0011 22.287 14.0687 22.357C14.1364 22.4247 14.2216 22.4795 14.3242 22.5215C14.4269 22.5635 14.5319 22.5985 14.6392 22.6265L15.5142 22.8645C15.6449 22.8995 15.7896 22.9462 15.9482 23.0045C16.1069 23.0605 16.2586 23.1399 16.4032 23.2425C16.5502 23.3429 16.6704 23.4759 16.7637 23.6415C16.8594 23.8072 16.9072 24.0172 16.9072 24.2715C16.9072 24.5422 16.8501 24.779 16.7357 24.982C16.6237 25.1827 16.4721 25.3495 16.2807 25.4825C16.0894 25.6132 15.8724 25.7112 15.6297 25.7765C15.3894 25.8419 15.1409 25.8745 14.8842 25.8745ZM17.0446 25.7695L18.7386 23.2215L17.0936 20.7295H18.2626L19.3336 22.4095L20.3906 20.7295H21.5666L19.9216 23.2215L21.6086 25.7695H20.4396L19.3336 24.0335L18.2206 25.7695H17.0446Z" fill="#003914"/>
</g>
<g filter="url(#filter3_dd_3008_8092)">
<path d="M13.0087 5.01644L12.9922 5C12.9922 5 12.998 5.0051 13.0087 5.01644L24.843 16.8169C24.843 16.8169 24.0369 16.0131 21.0872 16.0131C19.7045 16.0131 17.8395 16.2282 16.248 16.4568C14.6801 16.6819 13.2956 15.303 13.4937 13.7315C13.6721 12.3165 13.8296 10.6464 13.8296 9.16052C13.8296 6.01983 13.126 5.14112 13.0087 5.01644Z" fill="url(#paint1_linear_3008_8092)"/>
</g>
<g filter="url(#filter4_ddd_3008_8092)">
<path d="M14.1349 5.01586L14.1191 5C14.1191 5 14.1247 5.0049 14.1349 5.01586L24.9568 15.9082C24.9738 15.9249 24.9824 15.934 24.9824 15.934L24.9568 15.9082C24.7565 15.7116 23.3878 14.4583 21.0577 14.4583C19.7153 14.4583 17.8425 14.6953 16.3808 14.9177C15.2923 15.0833 14.3299 14.1249 14.4788 13.034C14.658 11.7212 14.8369 10.0424 14.8369 8.57315C14.8369 5.89004 14.2402 5.12919 14.1349 5.01586Z" fill="url(#paint2_linear_3008_8092)"/>
</g>
<defs>
<filter id="filter0_d_3008_8092" x="0.574351" y="4.74651" width="24.8513" height="28.2009" filterUnits="userSpaceOnUse" color-interpolation-filters="sRGB">
<feFlood flood-opacity="0" result="BackgroundImageFix"/>
<feColorMatrix in="SourceAlpha" type="matrix" values="0 0 0 0 0 0 0 0 0 0 0 0 0 0 0 0 0 0 127 0" result="hardAlpha"/>
<feOffset dy="0.141883"/>
<feGaussianBlur stdDeviation="0.212824"/>
<feComposite in2="hardAlpha" operator="out"/>
<feColorMatrix type="matrix" values="0 0 0 0 0 0 0 0 0 0 0 0 0 0 0 0 0 0 0.19 0"/>
<feBlend mode="normal" in2="BackgroundImageFix" result="effect1_dropShadow_3008_8092"/>
<feBlend mode="normal" in="SourceGraphic" in2="effect1_dropShadow_3008_8092" result="shape"/>
</filter>
<filter id="filter1_di_3008_8092" x="1" y="4.88839" width="24.1419" height="27.4915" filterUnits="userSpaceOnUse" color-interpolation-filters="sRGB">
<feFlood flood-opacity="0" result="BackgroundImageFix"/>
<feColorMatrix in="SourceAlpha" type="matrix" values="0 0 0 0 0 0 0 0 0 0 0 0 0 0 0 0 0 0 127 0" result="hardAlpha"/>
<feOffset dy="-0.141883"/>
<feComposite in2="hardAlpha" operator="out"/>
<feColorMatrix type="matrix" values="0 0 0 0 0 0 0 0 0 0 0 0 0 0 0 0 0 0 0.2 0"/>
<feBlend mode="normal" in2="BackgroundImageFix" result="effect1_dropShadow_3008_8092"/>
<feBlend mode="normal" in="SourceGraphic" in2="effect1_dropShadow_3008_8092" result="shape"/>
<feColorMatrix in="SourceAlpha" type="matrix" values="0 0 0 0 0 0 0 0 0 0 0 0 0 0 0 0 0 0 127 0" result="hardAlpha"/>
<feOffset dx="0.141883" dy="-0.425649"/>
<feGaussianBlur stdDeviation="0.0709415"/>
<feComposite in2="hardAlpha" operator="arithmetic" k2="-1" k3="1"/>
<feColorMatrix type="matrix" values="0 0 0 0 0 0 0 0 0 0 0 0 0 0 0 0 0 0 0.19 0"/>
<feBlend mode="normal" in2="shape" result="effect2_innerShadow_3008_8092"/>
</filter>
<filter id="filter2_ii_3008_8092" x="4.07031" y="20.6279" width="17.5391" height="8.12869" filterUnits="userSpaceOnUse" color-interpolation-filters="sRGB">
<feFlood flood-opacity="0" result="BackgroundImageFix"/>
<feBlend mode="normal" in="SourceGraphic" in2="BackgroundImageFix" result="shape"/>
<feColorMatrix in="SourceAlpha" type="matrix" values="0 0 0 0 0 0 0 0 0 0 0 0 0 0 0 0 0 0 127 0" result="hardAlpha"/>
<feOffset dy="2.88161"/>
<feGaussianBlur stdDeviation="2.88161"/>
<feComposite in2="hardAlpha" operator="arithmetic" k2="-1" k3="1"/>
<feColorMatrix type="matrix" values="0 0 0 0 1 0 0 0 0 1 0 0 0 0 1 0 0 0 0.24 0"/>
<feBlend mode="normal" in2="shape" result="effect1_innerShadow_3008_8092"/>
<feColorMatrix in="SourceAlpha" type="matrix" values="0 0 0 0 0 0 0 0 0 0 0 0 0 0 0 0 0 0 127 0" result="hardAlpha"/>
<feOffset dy="1.02373"/>
<feComposite in2="hardAlpha" operator="arithmetic" k2="-1" k3="1"/>
<feColorMatrix type="matrix" values="0 0 0 0 1 0 0 0 0 1 0 0 0 0 1 0 0 0 0.12 0"/>
<feBlend mode="normal" in2="effect1_innerShadow_3008_8092" result="effect2_innerShadow_3008_8092"/>
</filter>
<filter id="filter3_dd_3008_8092" x="7.37907" y="0.509507" width="23.0778" height="23.0436" filterUnits="userSpaceOnUse" color-interpolation-filters="sRGB">
<feFlood flood-opacity="0" result="BackgroundImageFix"/>
<feColorMatrix in="SourceAlpha" type="matrix" values="0 0 0 0 0 0 0 0 0 0 0 0 0 0 0 0 0 0 127 0" result="hardAlpha"/>
<feOffset dy="1.12262"/>
<feGaussianBlur stdDeviation="2.80656"/>
<feComposite in2="hardAlpha" operator="out"/>
<feColorMatrix type="matrix" values="0 0 0 0 0 0 0 0 0 0 0 0 0 0 0 0 0 0 0.09 0"/>
<feBlend mode="normal" in2="BackgroundImageFix" result="effect1_dropShadow_3008_8092"/>
<feColorMatrix in="SourceAlpha" type="matrix" values="0 0 0 0 0 0 0 0 0 0 0 0 0 0 0 0 0 0 127 0" result="hardAlpha"/>
<feOffset dy="0.561312"/>
<feGaussianBlur stdDeviation="0.841968"/>
<feComposite in2="hardAlpha" operator="out"/>
<feColorMatrix type="matrix" values="0 0 0 0 0 0 0 0 0 0 0 0 0 0 0 0 0 0 0.1 0"/>
<feBlend mode="normal" in2="effect1_dropShadow_3008_8092" result="effect2_dropShadow_3008_8092"/>
<feBlend mode="normal" in="SourceGraphic" in2="effect2_dropShadow_3008_8092" result="shape"/>
</filter>
<filter id="filter4_ddd_3008_8092" x="8.50602" y="0.509507" width="22.0895" height="22.1598" filterUnits="userSpaceOnUse" color-interpolation-filters="sRGB">
<feFlood flood-opacity="0" result="BackgroundImageFix"/>
<feColorMatrix in="SourceAlpha" type="matrix" values="0 0 0 0 0 0 0 0 0 0 0 0 0 0 0 0 0 0 127 0" result="hardAlpha"/>
<feOffset dy="1.12262"/>
<feGaussianBlur stdDeviation="2.80656"/>
<feComposite in2="hardAlpha" operator="out"/>
<feColorMatrix type="matrix" values="0 0 0 0 0 0 0 0 0 0 0 0 0 0 0 0 0 0 0.09 0"/>
<feBlend mode="normal" in2="BackgroundImageFix" result="effect1_dropShadow_3008_8092"/>
<feColorMatrix in="SourceAlpha" type="matrix" values="0 0 0 0 0 0 0 0 0 0 0 0 0 0 0 0 0 0 127 0" result="hardAlpha"/>
<feOffset dy="0.561312"/>
<feGaussianBlur stdDeviation="0.841968"/>
<feComposite in2="hardAlpha" operator="out"/>
<feColorMatrix type="matrix" values="0 0 0 0 0 0 0 0 0 0 0 0 0 0 0 0 0 0 0.1 0"/>
<feBlend mode="normal" in2="effect1_dropShadow_3008_8092" result="effect2_dropShadow_3008_8092"/>
<feColorMatrix in="SourceAlpha" type="matrix" values="0 0 0 0 0 0 0 0 0 0 0 0 0 0 0 0 0 0 127 0" result="hardAlpha"/>
<feOffset dy="0.425649"/>
<feGaussianBlur stdDeviation="0.283766"/>
<feComposite in2="hardAlpha" operator="out"/>
<feColorMatrix type="matrix" values="0 0 0 0 0 0 0 0 0 0 0 0 0 0 0 0 0 0 0.1 0"/>
<feBlend mode="normal" in2="effect2_dropShadow_3008_8092" result="effect3_dropShadow_3008_8092"/>
<feBlend mode="normal" in="SourceGraphic" in2="effect3_dropShadow_3008_8092" result="shape"/>
</filter>
<linearGradient id="paint0_linear_3008_8092" x1="21.8034" y1="30.2119" x2="3.48362" y2="4.99925" gradientUnits="userSpaceOnUse">
<stop stop-color="#EEEEEE"/>
<stop offset="1" stop-color="#F5F5F5"/>
</linearGradient>
<linearGradient id="paint1_linear_3008_8092" x1="18.8541" y1="10.8737" x2="14.7293" y2="15.5783" gradientUnits="userSpaceOnUse">
<stop stop-color="white"/>
<stop offset="0.141768" stop-color="#FBFBFB"/>
<stop offset="0.495941" stop-color="#EEEEEE"/>
<stop offset="1" stop-color="#F1F1F1"/>
</linearGradient>
<linearGradient id="paint2_linear_3008_8092" x1="19.1436" y1="10.0444" x2="15.6002" y2="14.078" gradientUnits="userSpaceOnUse">
<stop stop-color="white"/>
<stop offset="0.0844748" stop-color="#F4F4F4"/>
<stop offset="0.209477" stop-color="#FBFBFB"/>
<stop offset="0.636568" stop-color="#EDEDED"/>
<stop offset="0.787613" stop-color="#ECECEC"/>
<stop offset="1" stop-color="white"/>
</linearGradient>
</defs>
</svg>
