<svg width="20" height="20" viewBox="0 0 20 20" fill="none" xmlns="http://www.w3.org/2000/svg">
<path opacity="0.2" d="M16.25 6.875H3.75C3.58424 6.875 3.42527 6.94085 3.30806 7.05806C3.19085 7.17527 3.125 7.33424 3.125 7.5V16.25C3.125 16.4158 3.19085 16.5747 3.30806 16.6919C3.42527 16.8092 3.58424 16.875 3.75 16.875H16.25C16.4158 16.875 16.5747 16.8092 16.6919 16.6919C16.8092 16.5747 16.875 16.4158 16.875 16.25V7.5C16.875 7.33424 16.8092 7.17527 16.6919 7.05806C16.5747 6.94085 16.4158 6.875 16.25 6.875ZM10 12.5C9.69097 12.5 9.38887 12.4084 9.13192 12.2367C8.87497 12.065 8.6747 11.821 8.55644 11.5354C8.43818 11.2499 8.40723 10.9358 8.46752 10.6327C8.52781 10.3296 8.67663 10.0512 8.89515 9.83265C9.11367 9.61413 9.39208 9.46531 9.69517 9.40502C9.99827 9.34473 10.3124 9.37568 10.5979 9.49394C10.8835 9.6122 11.1275 9.81247 11.2992 10.0694C11.4709 10.3264 11.5625 10.6285 11.5625 10.9375C11.5625 11.3519 11.3979 11.7493 11.1049 12.0424C10.8118 12.3354 10.4144 12.5 10 12.5Z" fill="#003914"/>
<path d="M16.25 6.25H13.75V4.375C13.75 3.38044 13.3549 2.42661 12.6517 1.72335C11.9484 1.02009 10.9946 0.625 10 0.625C9.00544 0.625 8.05161 1.02009 7.34835 1.72335C6.64509 2.42661 6.25 3.38044 6.25 4.375V6.25H3.75C3.41848 6.25 3.10054 6.3817 2.86612 6.61612C2.6317 6.85054 2.5 7.16848 2.5 7.5V16.25C2.5 16.5815 2.6317 16.8995 2.86612 17.1339C3.10054 17.3683 3.41848 17.5 3.75 17.5H16.25C16.5815 17.5 16.8995 17.3683 17.1339 17.1339C17.3683 16.8995 17.5 16.5815 17.5 16.25V7.5C17.5 7.16848 17.3683 6.85054 17.1339 6.61612C16.8995 6.3817 16.5815 6.25 16.25 6.25ZM7.5 4.375C7.5 3.71196 7.76339 3.07607 8.23223 2.60723C8.70107 2.13839 9.33696 1.875 10 1.875C10.663 1.875 11.2989 2.13839 11.7678 2.60723C12.2366 3.07607 12.5 3.71196 12.5 4.375V6.25H7.5V4.375ZM16.25 16.25H3.75V7.5H16.25V16.25ZM10 8.75C9.47469 8.75018 8.96698 8.93939 8.56967 9.28305C8.17237 9.62671 7.912 10.1019 7.83616 10.6217C7.76031 11.1415 7.87406 11.6712 8.15661 12.1141C8.43916 12.5569 8.87164 12.8833 9.375 13.0336V14.375C9.375 14.5408 9.44085 14.6997 9.55806 14.8169C9.67527 14.9342 9.83424 15 10 15C10.1658 15 10.3247 14.9342 10.4419 14.8169C10.5592 14.6997 10.625 14.5408 10.625 14.375V13.0336C11.1284 12.8833 11.5608 12.5569 11.8434 12.1141C12.1259 11.6712 12.2397 11.1415 12.1638 10.6217C12.088 10.1019 11.8276 9.62671 11.4303 9.28305C11.033 8.93939 10.5253 8.75018 10 8.75ZM10 11.875C9.81458 11.875 9.63332 11.82 9.47915 11.717C9.32498 11.614 9.20482 11.4676 9.13386 11.2963C9.06291 11.125 9.04434 10.9365 9.08051 10.7546C9.11669 10.5727 9.20598 10.4057 9.33709 10.2746C9.4682 10.1435 9.63525 10.0542 9.8171 10.018C9.99896 9.98184 10.1875 10.0004 10.3588 10.0714C10.5301 10.1423 10.6765 10.2625 10.7795 10.4167C10.8825 10.5708 10.9375 10.7521 10.9375 10.9375C10.9375 11.1861 10.8387 11.4246 10.6629 11.6004C10.4871 11.7762 10.2486 11.875 10 11.875Z" fill="#003914"/>
</svg>
