<svg width="20" height="20" viewBox="0 0 20 20" fill="none" xmlns="http://www.w3.org/2000/svg">
<path opacity="0.2" d="M5.6875 16.875L6.875 11.875L2.5 9.91094L9.9375 1.875L8.75 6.875L13.125 8.83906L5.6875 16.875Z" fill="#68000B"/>
<path d="M13.7374 8.71412C13.7176 8.61696 13.675 8.5259 13.613 8.44846C13.5511 8.37103 13.4716 8.30945 13.3811 8.26881L9.4749 6.51646L10.5468 2.01959C10.5785 1.8853 10.5649 1.7443 10.508 1.61856C10.4512 1.49283 10.3544 1.38944 10.2326 1.32451C10.1109 1.25958 9.97105 1.23676 9.83498 1.25961C9.69891 1.28246 9.57422 1.3497 9.48036 1.45084L2.0413 9.486C1.97395 9.55877 1.92488 9.64652 1.89815 9.742C1.87141 9.83749 1.86778 9.93796 1.88755 10.0351C1.90732 10.1323 1.94992 10.2234 2.01184 10.3008C2.07376 10.3783 2.15321 10.4399 2.24365 10.4805L6.1499 12.2337L5.07802 16.7305C5.04632 16.8648 5.05994 17.0058 5.11677 17.1316C5.1736 17.2573 5.27043 17.3607 5.39218 17.4256C5.51393 17.4905 5.65374 17.5134 5.78981 17.4905C5.92588 17.4677 6.05057 17.4004 6.14443 17.2993L13.5819 9.26412C13.6497 9.19141 13.6992 9.10359 13.7262 9.00793C13.7533 8.91228 13.7571 8.81155 13.7374 8.71412ZM6.84521 14.704L7.48271 12.0196C7.51641 11.8781 7.49974 11.7294 7.43557 11.5989C7.3714 11.4684 7.26375 11.3644 7.13115 11.3047L3.54911 9.69693L8.77958 4.04615L8.14208 6.73053C8.10838 6.87197 8.12505 7.02074 8.18922 7.15122C8.25339 7.28169 8.36104 7.38572 8.49365 7.44537L12.0749 9.05318L6.84521 14.704ZM18.6835 16.5954L15.871 10.9704C15.8191 10.8666 15.7393 10.7793 15.6406 10.7183C15.5418 10.6573 15.4281 10.6249 15.312 10.6249C15.1959 10.6249 15.0822 10.6573 14.9835 10.7183C14.8847 10.7793 14.8049 10.8666 14.753 10.9704L11.9405 16.5954C11.8663 16.7436 11.8541 16.9153 11.9065 17.0726C11.9589 17.2298 12.0716 17.3599 12.2198 17.434C12.3681 17.5082 12.5397 17.5205 12.697 17.4681C12.8543 17.4157 12.9843 17.303 13.0585 17.1547L13.8233 15.6251H16.8007L17.5655 17.1547C17.6175 17.2586 17.6973 17.3459 17.7961 17.4069C17.8949 17.4679 18.0088 17.5001 18.1249 17.5001C18.2314 17.5 18.3362 17.4727 18.4292 17.4208C18.5222 17.3689 18.6004 17.2941 18.6564 17.2034C18.7123 17.1128 18.7442 17.0093 18.7489 16.9029C18.7537 16.7965 18.7312 16.6906 18.6835 16.5954ZM14.4483 14.3751L15.3124 12.6477L16.1757 14.3751H14.4483Z" fill="#68000B"/>
</svg>
