<svg width="20" height="20" viewBox="0 0 20 20" fill="none" xmlns="http://www.w3.org/2000/svg">
<path opacity="0.2" d="M10 3.75V10H3.19297C3.14749 9.58489 3.1248 9.1676 3.125 8.75V4.375C3.125 4.20924 3.19085 4.05027 3.30806 3.93306C3.42527 3.81585 3.58424 3.75 3.75 3.75H10ZM10 10V18.125C10 18.125 16.0984 16.4609 16.807 10H10Z" fill="#003640"/>
<path d="M16.25 3.125H3.75C3.41848 3.125 3.10054 3.2567 2.86612 3.49112C2.6317 3.72554 2.5 4.04348 2.5 4.375V8.75C2.5 12.8687 4.49375 15.3648 6.16641 16.7336C7.96797 18.207 9.76016 18.7078 9.83828 18.7281C9.9457 18.7573 10.059 18.7573 10.1664 18.7281C10.2445 18.7078 12.0344 18.207 13.8383 16.7336C15.5063 15.3648 17.5 12.8687 17.5 8.75V4.375C17.5 4.04348 17.3683 3.72554 17.1339 3.49112C16.8995 3.2567 16.5815 3.125 16.25 3.125ZM9.375 17.2305C8.50565 16.8566 7.69242 16.3639 6.95859 15.7664C5.30625 14.4148 4.28672 12.6906 3.91172 10.625H9.375V17.2305ZM9.375 9.375H3.76797C3.75625 9.16953 3.75 8.96172 3.75 8.75V4.375H9.375V9.375ZM13.0781 15.7359C12.3345 16.3462 11.5087 16.8487 10.625 17.2289V10.625H16.0867C15.7156 12.675 14.7086 14.3891 13.0781 15.7359ZM16.25 8.75C16.25 8.96172 16.2438 9.16953 16.232 9.375H10.625V4.375H16.25V8.75Z" fill="#003640"/>
</svg>
