<svg width="97" height="16" viewBox="0 0 97 16" fill="none" xmlns="http://www.w3.org/2000/svg">
<path d="M14.5 1.5L1.5 7.5L7.5 8.75M14.5 1.5L9.5 14.5L7.5 8.75M14.5 1.5L7.5 8.75" stroke="black" stroke-linecap="round" stroke-linejoin="round"/>
<path d="M28.331 6.21733H26.7372C26.6918 5.95597 26.608 5.72443 26.4858 5.52273C26.3636 5.31818 26.2116 5.14489 26.0298 5.00284C25.848 4.8608 25.6406 4.75426 25.4077 4.68324C25.1776 4.60938 24.929 4.57244 24.6619 4.57244C24.1875 4.57244 23.767 4.69176 23.4006 4.9304C23.0341 5.16619 22.7472 5.51278 22.5398 5.97017C22.3324 6.42472 22.2287 6.98011 22.2287 7.63636C22.2287 8.30398 22.3324 8.86648 22.5398 9.32386C22.75 9.77841 23.0369 10.1222 23.4006 10.3551C23.767 10.5852 24.1861 10.7003 24.6577 10.7003C24.919 10.7003 25.1634 10.6662 25.3906 10.598C25.6207 10.527 25.8267 10.4233 26.0085 10.2869C26.1932 10.1506 26.348 9.98295 26.473 9.78409C26.6009 9.58523 26.6889 9.35795 26.7372 9.10227L28.331 9.1108C28.2713 9.52557 28.142 9.91477 27.9432 10.2784C27.7472 10.642 27.4901 10.9631 27.1719 11.2415C26.8537 11.517 26.4815 11.733 26.0554 11.8892C25.6293 12.0426 25.1563 12.1193 24.6364 12.1193C23.8693 12.1193 23.1847 11.9418 22.5824 11.5866C21.9801 11.2315 21.5057 10.7188 21.1591 10.0483C20.8125 9.37784 20.6392 8.57386 20.6392 7.63636C20.6392 6.69602 20.8139 5.89205 21.1634 5.22443C21.5128 4.55398 21.9886 4.04119 22.5909 3.68608C23.1932 3.33097 23.875 3.15341 24.6364 3.15341C25.1222 3.15341 25.5739 3.22159 25.9915 3.35795C26.4091 3.49432 26.7813 3.6946 27.108 3.95881C27.4347 4.22017 27.7031 4.54119 27.9134 4.92188C28.1264 5.29972 28.2656 5.73153 28.331 6.21733ZM32.5657 12.1278C31.9265 12.1278 31.3725 11.9872 30.9038 11.706C30.435 11.4247 30.0714 11.0312 29.8129 10.5256C29.5572 10.0199 29.4293 9.42898 29.4293 8.75284C29.4293 8.0767 29.5572 7.48437 29.8129 6.97585C30.0714 6.46733 30.435 6.07244 30.9038 5.79119C31.3725 5.50994 31.9265 5.36932 32.5657 5.36932C33.2049 5.36932 33.7589 5.50994 34.2276 5.79119C34.6964 6.07244 35.0586 6.46733 35.3143 6.97585C35.5728 7.48437 35.7021 8.0767 35.7021 8.75284C35.7021 9.42898 35.5728 10.0199 35.3143 10.5256C35.0586 11.0312 34.6964 11.4247 34.2276 11.706C33.7589 11.9872 33.2049 12.1278 32.5657 12.1278ZM32.5742 10.892C32.9208 10.892 33.2106 10.7969 33.4435 10.6065C33.6765 10.4134 33.8498 10.1548 33.9634 9.83097C34.0799 9.5071 34.1381 9.14631 34.1381 8.74858C34.1381 8.34801 34.0799 7.9858 33.9634 7.66193C33.8498 7.33523 33.6765 7.07528 33.4435 6.8821C33.2106 6.68892 32.9208 6.59233 32.5742 6.59233C32.2191 6.59233 31.9237 6.68892 31.6879 6.8821C31.4549 7.07528 31.2802 7.33523 31.1637 7.66193C31.0501 7.9858 30.9933 8.34801 30.9933 8.74858C30.9933 9.14631 31.0501 9.5071 31.1637 9.83097C31.2802 10.1548 31.4549 10.4134 31.6879 10.6065C31.9237 10.7969 32.2191 10.892 32.5742 10.892ZM38.554 3.27273V12H37.0114V3.27273H38.554ZM42.5692 12.1151C42.055 12.1151 41.5948 11.983 41.1886 11.7188C40.7823 11.4545 40.4613 11.071 40.2255 10.5682C39.9897 10.0653 39.8718 9.45455 39.8718 8.7358C39.8718 8.00852 39.9911 7.39489 40.2298 6.89489C40.4712 6.39205 40.7965 6.01278 41.2056 5.7571C41.6147 5.49858 42.0707 5.36932 42.5735 5.36932C42.957 5.36932 43.2724 5.43466 43.5195 5.56534C43.7667 5.69318 43.9627 5.84801 44.1076 6.02983C44.2525 6.20881 44.3647 6.37784 44.4442 6.53693H44.5082V3.27273H46.055V12H44.538V10.9688H44.4442C44.3647 11.1278 44.2496 11.2969 44.0991 11.4759C43.9485 11.652 43.7496 11.8026 43.5025 11.9276C43.2553 12.0526 42.9442 12.1151 42.5692 12.1151ZM42.9996 10.8494C43.3263 10.8494 43.6048 10.7614 43.8349 10.5852C44.065 10.4062 44.2397 10.1577 44.359 9.83949C44.4783 9.52131 44.538 9.15057 44.538 8.72727C44.538 8.30398 44.4783 7.93608 44.359 7.62358C44.2425 7.31108 44.0692 7.06818 43.8391 6.89489C43.6119 6.72159 43.332 6.63494 42.9996 6.63494C42.6559 6.63494 42.369 6.72443 42.1388 6.90341C41.9087 7.08239 41.7354 7.32955 41.619 7.64489C41.5025 7.96023 41.4442 8.32102 41.4442 8.72727C41.4442 9.13636 41.5025 9.50142 41.619 9.82244C41.7383 10.1406 41.913 10.392 42.1431 10.5767C42.3761 10.7585 42.6616 10.8494 42.9996 10.8494ZM47.767 12V3.27273H51.0398C51.7102 3.27273 52.2727 3.3892 52.7273 3.62216C53.1847 3.85511 53.5298 4.18182 53.7628 4.60227C53.9986 5.01989 54.1165 5.5071 54.1165 6.06392C54.1165 6.62358 53.9972 7.10937 53.7585 7.52131C53.5227 7.9304 53.1747 8.24716 52.7145 8.47159C52.2543 8.69318 51.6889 8.80398 51.0185 8.80398H48.6875V7.49148H50.8054C51.1974 7.49148 51.5185 7.4375 51.7685 7.32955C52.0185 7.21875 52.2031 7.05824 52.3224 6.84801C52.4446 6.63494 52.5057 6.37358 52.5057 6.06392C52.5057 5.75426 52.4446 5.49006 52.3224 5.27131C52.2003 5.04972 52.0142 4.8821 51.7642 4.76847C51.5142 4.65199 51.1918 4.59375 50.7969 4.59375H49.348V12H47.767ZM52.2756 8.04545L54.4361 12H52.6719L50.5497 8.04545H52.2756ZM58.3075 12.1278C57.6513 12.1278 57.0845 11.9915 56.6072 11.7188C56.1328 11.4432 55.7678 11.054 55.5121 10.5511C55.2564 10.0455 55.1286 9.45028 55.1286 8.76562C55.1286 8.09233 55.2564 7.50142 55.5121 6.9929C55.7706 6.48153 56.1314 6.08381 56.5945 5.79972C57.0575 5.51278 57.6016 5.36932 58.2266 5.36932C58.63 5.36932 59.0107 5.43466 59.3686 5.56534C59.7294 5.69318 60.0476 5.89205 60.3232 6.16193C60.6016 6.43182 60.8203 6.77557 60.9794 7.19318C61.1385 7.60795 61.218 8.10227 61.218 8.67614V9.14915H55.853V8.10938H59.7393C59.7365 7.81392 59.6726 7.55114 59.5476 7.32102C59.4226 7.08807 59.2479 6.90483 59.0234 6.77131C58.8018 6.63778 58.5433 6.57102 58.2479 6.57102C57.9325 6.57102 57.6555 6.64773 57.4169 6.80114C57.1783 6.9517 56.9922 7.15057 56.8587 7.39773C56.728 7.64205 56.6612 7.91051 56.6584 8.20312V9.1108C56.6584 9.49148 56.728 9.81818 56.8672 10.0909C57.0064 10.3608 57.201 10.5682 57.451 10.7131C57.701 10.8551 57.9936 10.9261 58.3288 10.9261C58.5533 10.9261 58.7564 10.8949 58.9382 10.8324C59.12 10.767 59.2777 10.6719 59.4112 10.5469C59.5447 10.4219 59.6456 10.267 59.7138 10.0824L61.1541 10.2443C61.0632 10.625 60.8899 10.9574 60.6342 11.2415C60.3814 11.5227 60.0575 11.7415 59.6626 11.8977C59.2678 12.0511 58.8161 12.1278 58.3075 12.1278ZM64.4066 12.1321C63.9918 12.1321 63.6183 12.0582 63.2859 11.9105C62.9563 11.7599 62.695 11.5384 62.5018 11.2457C62.3114 10.9531 62.2163 10.5923 62.2163 10.1634C62.2163 9.79403 62.2844 9.48864 62.4208 9.24716C62.5572 9.00568 62.7433 8.8125 62.979 8.66761C63.2148 8.52273 63.4805 8.41335 63.7759 8.33949C64.0742 8.26278 64.3825 8.20739 64.7006 8.1733C65.0842 8.13352 65.3952 8.09801 65.6339 8.06676C65.8725 8.03267 66.0458 7.98153 66.1538 7.91335C66.2646 7.84233 66.32 7.73295 66.32 7.58523V7.55966C66.32 7.23864 66.2248 6.99006 66.0344 6.81392C65.8441 6.63778 65.57 6.54972 65.212 6.54972C64.8342 6.54972 64.5344 6.6321 64.3129 6.79688C64.0941 6.96165 63.9464 7.15625 63.8697 7.38068L62.4293 7.17614C62.543 6.77841 62.7305 6.44602 62.9918 6.17898C63.2532 5.90909 63.5728 5.70739 63.9506 5.57386C64.3285 5.4375 64.7461 5.36932 65.2035 5.36932C65.5188 5.36932 65.8327 5.40625 66.1452 5.48011C66.4577 5.55398 66.7433 5.67614 67.0018 5.84659C67.2603 6.0142 67.4677 6.2429 67.6239 6.53267C67.783 6.82244 67.8626 7.18466 67.8626 7.61932V12H66.3796V11.1009H66.3285C66.2347 11.2827 66.1026 11.4531 65.9322 11.6122C65.7646 11.7685 65.5529 11.8949 65.2972 11.9915C65.0444 12.0852 64.7475 12.1321 64.4066 12.1321ZM64.8072 10.9986C65.1168 10.9986 65.3853 10.9375 65.6126 10.8153C65.8398 10.6903 66.0146 10.5256 66.1367 10.321C66.2617 10.1165 66.3242 9.89347 66.3242 9.65199V8.88068C66.2759 8.92045 66.1935 8.95739 66.0771 8.99148C65.9634 9.02557 65.8356 9.0554 65.6935 9.08097C65.5515 9.10653 65.4109 9.12926 65.2717 9.14915C65.1325 9.16903 65.0117 9.18608 64.9094 9.20028C64.6793 9.23153 64.4734 9.28267 64.2915 9.35369C64.1097 9.42472 63.9663 9.52415 63.8612 9.65199C63.756 9.77699 63.7035 9.93892 63.7035 10.1378C63.7035 10.4219 63.8072 10.6364 64.0146 10.7812C64.2219 10.9261 64.4862 10.9986 64.8072 10.9986ZM72.2688 12.1278C71.6154 12.1278 71.0543 11.9844 70.5856 11.6974C70.1197 11.4105 69.7603 11.0142 69.5075 10.5085C69.2575 10 69.1325 9.41477 69.1325 8.75284C69.1325 8.08807 69.2603 7.50142 69.516 6.9929C69.7717 6.48153 70.1325 6.08381 70.5984 5.79972C71.0671 5.51278 71.6211 5.36932 72.2603 5.36932C72.7915 5.36932 73.2617 5.46733 73.6708 5.66335C74.0827 5.85653 74.4109 6.13068 74.6552 6.4858C74.8995 6.83807 75.0387 7.25 75.0728 7.72159H73.5984C73.5387 7.40625 73.3967 7.14347 73.1722 6.93324C72.9506 6.72017 72.6538 6.61364 72.2816 6.61364C71.9663 6.61364 71.6893 6.69886 71.4506 6.86932C71.212 7.03693 71.0259 7.27841 70.8924 7.59375C70.7617 7.90909 70.6964 8.28693 70.6964 8.72727C70.6964 9.1733 70.7617 9.55682 70.8924 9.87784C71.0231 10.196 71.2063 10.4418 71.4421 10.6151C71.6808 10.7855 71.9606 10.8707 72.2816 10.8707C72.5089 10.8707 72.712 10.8281 72.891 10.7429C73.0728 10.6548 73.2248 10.5284 73.3469 10.3636C73.4691 10.1989 73.5529 9.99858 73.5984 9.76278H75.0728C75.0359 10.2259 74.8995 10.6364 74.6637 10.9943C74.4279 11.3494 74.1069 11.6278 73.7006 11.8295C73.2944 12.0284 72.8171 12.1278 72.2688 12.1278ZM77.8821 8.16477V12H76.3395V3.27273H77.848V6.56676H77.9247C78.0781 6.19744 78.3153 5.90625 78.6364 5.69318C78.9602 5.47727 79.3722 5.36932 79.8722 5.36932C80.3267 5.36932 80.723 5.46449 81.0611 5.65483C81.3991 5.84517 81.6605 6.12358 81.8452 6.49006C82.0327 6.85653 82.1264 7.30398 82.1264 7.83239V12H80.5838V8.07102C80.5838 7.63068 80.4702 7.28835 80.2429 7.04403C80.0185 6.79687 79.7031 6.6733 79.2969 6.6733C79.0241 6.6733 78.7798 6.73295 78.5639 6.85227C78.3509 6.96875 78.1832 7.13778 78.0611 7.35938C77.9418 7.58097 77.8821 7.84943 77.8821 8.16477ZM84.6491 12.0938C84.3906 12.0938 84.169 12.0028 83.9844 11.821C83.7997 11.6392 83.7088 11.4176 83.7116 11.1562C83.7088 10.9006 83.7997 10.6818 83.9844 10.5C84.169 10.3182 84.3906 10.2273 84.6491 10.2273C84.8991 10.2273 85.1165 10.3182 85.3011 10.5C85.4886 10.6818 85.5838 10.9006 85.5866 11.1562C85.5838 11.3295 85.5384 11.4872 85.4503 11.6293C85.3651 11.7713 85.2514 11.8849 85.1094 11.9702C84.9702 12.0526 84.8168 12.0938 84.6491 12.0938ZM87.1793 12V5.45455H88.7219V12H87.1793ZM87.9549 4.52557C87.7106 4.52557 87.5004 4.4446 87.3242 4.28267C87.1481 4.1179 87.06 3.92045 87.06 3.69034C87.06 3.45739 87.1481 3.25994 87.3242 3.09801C87.5004 2.93324 87.7106 2.85085 87.9549 2.85085C88.2021 2.85085 88.4123 2.93324 88.5856 3.09801C88.7617 3.25994 88.8498 3.45739 88.8498 3.69034C88.8498 3.92045 88.7617 4.1179 88.5856 4.28267C88.4123 4.4446 88.2021 4.52557 87.9549 4.52557ZM93.1634 12.1278C92.5241 12.1278 91.9702 11.9872 91.5014 11.706C91.0327 11.4247 90.669 11.0312 90.4105 10.5256C90.1548 10.0199 90.027 9.42898 90.027 8.75284C90.027 8.0767 90.1548 7.48437 90.4105 6.97585C90.669 6.46733 91.0327 6.07244 91.5014 5.79119C91.9702 5.50994 92.5241 5.36932 93.1634 5.36932C93.8026 5.36932 94.3565 5.50994 94.8253 5.79119C95.294 6.07244 95.6563 6.46733 95.9119 6.97585C96.1705 7.48437 96.2997 8.0767 96.2997 8.75284C96.2997 9.42898 96.1705 10.0199 95.9119 10.5256C95.6563 11.0312 95.294 11.4247 94.8253 11.706C94.3565 11.9872 93.8026 12.1278 93.1634 12.1278ZM93.1719 10.892C93.5185 10.892 93.8082 10.7969 94.0412 10.6065C94.2741 10.4134 94.4474 10.1548 94.5611 9.83097C94.6776 9.5071 94.7358 9.14631 94.7358 8.74858C94.7358 8.34801 94.6776 7.9858 94.5611 7.66193C94.4474 7.33523 94.2741 7.07528 94.0412 6.8821C93.8082 6.68892 93.5185 6.59233 93.1719 6.59233C92.8168 6.59233 92.5213 6.68892 92.2855 6.8821C92.0526 7.07528 91.8778 7.33523 91.7614 7.66193C91.6477 7.9858 91.5909 8.34801 91.5909 8.74858C91.5909 9.14631 91.6477 9.5071 91.7614 9.83097C91.8778 10.1548 92.0526 10.4134 92.2855 10.6065C92.5213 10.7969 92.8168 10.892 93.1719 10.892Z" fill="#0C0C0C"/>
</svg>
